<svg width="1532" height="586" viewBox="0 0 1532 586" fill="none" xmlns="http://www.w3.org/2000/svg">
<path d="M1003.25 120.393C994.188 126.631 984.491 131.23 974.608 135.538L967.17 138.683L959.613 141.511C957.089 142.436 954.579 143.427 952.029 144.286L944.353 146.771C923.835 153.233 902.894 158.44 881.729 162.207C839.425 170.123 796.473 173.995 753.521 175.488C748.144 175.66 742.78 175.937 737.403 176.03L705.166 176.149H697.107L689.074 176.056C667.658 175.739 646.281 175.25 624.904 174.735C582.177 173.559 539.516 172.303 496.908 171.827C454.313 171.299 411.758 172.039 369.427 174.167C358.844 174.656 348.275 175.237 337.719 175.911C327.162 176.479 316.619 177.299 306.103 178.052C295.573 178.766 285.083 179.77 274.579 180.695C264.089 181.673 253.612 182.704 243.188 184.038C201.452 189.021 160.033 196.342 120.133 208.831C100.196 215.068 80.6559 222.627 61.9612 232.116C43.2136 241.512 25.4966 253.01 8.96855 266.516L7 264.56C20.7667 247.882 37.4797 233.543 55.5139 221.213C64.5904 215.134 74.0368 209.571 83.6815 204.403C86.1124 203.148 88.517 201.84 90.9744 200.624L98.373 197.069C100.844 195.866 103.354 194.809 105.838 193.672C108.322 192.523 110.845 191.466 113.382 190.435C153.836 173.638 196.55 163.343 239.383 156.577C282.295 149.837 325.55 147.128 368.621 146.731C411.718 146.454 454.643 147.934 497.476 149.665C540.309 151.41 583.023 153.907 625.671 156.326C646.994 157.608 668.292 158.85 689.589 159.934L697.569 160.33L705.523 160.608L737.363 161.638C742.675 161.744 747.972 161.652 753.284 161.678C795.746 161.969 838.275 159.894 880.302 153.828C901.349 150.973 922.17 146.692 942.649 141.194L950.325 139.106C952.875 138.379 955.385 137.52 957.908 136.74L965.492 134.322L972.957 131.586C982.826 127.846 992.748 123.67 1001.59 118.199L1003.21 120.446L1003.25 120.393Z" fill="white"/>
<path d="M426.7 129.961C436.134 122.811 446.148 116.812 456.387 111.089C466.626 105.407 477.143 100.213 487.818 95.4026C509.221 85.8875 531.298 77.8525 553.758 71.1127C598.705 57.6858 645.105 49.2147 691.835 44.7743C738.605 40.4529 785.705 39.9639 832.607 42.6863C879.509 45.5144 926.174 51.4878 972.402 59.7739C983.962 61.8619 995.483 64.0821 1007 66.3551L1041.29 73.5311C1052.64 75.9231 1063.99 78.3415 1075.36 80.5749C1086.74 82.8216 1098.09 85.2267 1109.46 87.3941C1154.95 96.3277 1200.39 105.195 1245.94 113.23C1291.51 121.159 1337.21 128.19 1383.13 132.868C1406.08 135.168 1429.11 137.031 1452.14 137.481C1463.66 137.837 1475.18 137.626 1486.67 137.071C1492.41 136.714 1498.15 136.304 1503.85 135.551C1509.5 134.851 1515.32 133.926 1520.59 132.326L1521.79 134.824C1518.99 136.304 1516.28 137.322 1513.45 138.326C1510.64 139.304 1507.81 140.176 1504.96 140.983C1499.25 142.608 1493.46 143.784 1487.66 144.96C1476.05 147.194 1464.32 148.608 1452.59 149.705C1440.84 150.775 1429.07 151.37 1417.31 151.7L1408.48 151.938L1399.66 151.991C1393.77 152.057 1387.9 151.938 1382.02 151.859C1334.99 150.907 1288.2 146.388 1241.78 140.071C1195.36 133.622 1149.28 125.177 1103.69 114.843C1092.27 112.332 1080.91 109.609 1069.55 106.847C1058.17 104.151 1046.86 101.257 1035.54 98.4025L1001.78 89.905L984.94 85.9139C979.312 84.6188 973.67 83.4559 968.029 82.2136C922.884 72.6589 877.197 65.6283 831.233 61.5315C785.283 57.4876 739.028 56.2453 692.945 58.9677C681.438 59.7077 669.917 60.5271 658.436 61.7033C646.955 62.8795 635.487 64.2671 624.059 65.9455C601.215 69.355 578.517 73.7954 556.123 79.5573C533.743 85.306 511.666 92.363 490.17 100.927C479.415 105.195 468.806 109.834 458.435 114.975C448.103 120.129 437.838 125.679 428.391 132.168L426.7 129.961Z" fill="white"/>
<path d="M301.677 345.676C301.677 366.728 294.146 384.503 279.084 399C264.023 413.498 243.862 420.74 218.614 420.74C193.366 420.74 171.58 412.242 154.735 395.234C137.89 378.226 129.474 357.412 129.474 332.804C129.474 308.197 137.89 287.37 154.735 270.375C171.58 253.367 192.864 244.869 218.614 244.869C234.323 244.869 248.737 248.675 261.843 256.287C274.962 263.899 285.083 274.022 292.204 286.656L277.142 295.405C271.805 285.044 263.864 276.784 253.335 270.626C242.805 264.467 231.231 261.388 218.601 261.388C197.396 261.388 180.062 268.274 166.625 282.044C153.189 295.814 146.464 312.73 146.464 332.818C146.464 352.905 153.189 369.821 166.625 383.591C180.062 397.362 197.396 404.247 218.601 404.247C237.705 404.247 253.004 399.423 264.499 389.789C275.993 380.155 282.546 367.878 284.171 352.984H216.659V336.954H292.917C297.753 336.954 301.663 340.866 301.663 345.703L301.677 345.676Z" fill="white"/>
<path d="M640.481 263.807H691.479C700.872 263.807 708.879 267.203 715.524 274.009C722.156 280.802 725.473 289.048 725.486 298.762C725.486 307.219 722.606 315.36 717.07 321.756C710.147 329.765 701.612 333.769 691.479 333.769H687.264C683.459 333.769 681.107 337.892 683.023 341.17L727.904 417.819H747.338L705.8 347.606C716.489 344.526 725.275 338.5 732.158 329.501C739.041 320.514 742.476 310.272 742.476 298.775C742.476 284.423 737.311 272.212 726.979 262.142C717.387 252.798 704.4 247.75 691.003 247.75H633.28C627.864 247.75 623.477 252.137 623.477 257.556V417.806H640.481V263.78V263.807Z" fill="white"/>
<path d="M913.451 255.93C911.561 251.014 906.845 247.763 901.573 247.763C896.302 247.763 891.585 251.014 889.696 255.93L827.495 417.819H845.463L901.56 268.895L957.658 417.819H975.626L913.424 255.93H913.451Z" fill="white"/>
<path d="M466.56 255.93C464.671 251.014 459.954 247.763 454.683 247.763C449.411 247.763 444.695 251.014 442.806 255.93L380.604 417.819H398.572L454.67 268.895L510.767 417.819H528.735L466.534 255.93H466.56Z" fill="white"/>
<path d="M1226.78 345.676C1226.78 366.728 1219.25 384.503 1204.19 399C1189.13 413.498 1168.98 420.74 1143.72 420.74C1118.46 420.74 1096.69 412.242 1079.84 395.234C1063.01 378.226 1054.58 357.412 1054.58 332.804C1054.58 308.197 1063 287.37 1079.84 270.375C1096.69 253.367 1117.97 244.869 1143.72 244.869C1159.43 244.869 1173.83 248.675 1186.95 256.287C1200.07 263.899 1210.19 274.022 1217.31 286.656L1202.25 295.405C1196.91 285.044 1188.97 276.784 1178.44 270.626C1167.91 264.467 1156.34 261.388 1143.71 261.388C1122.49 261.388 1105.17 268.274 1091.73 282.044C1078.29 295.814 1071.57 312.73 1071.57 332.818C1071.57 352.905 1078.29 369.821 1091.73 383.591C1105.17 397.362 1122.5 404.247 1143.71 404.247C1162.81 404.247 1178.11 399.423 1189.6 389.789C1201.1 380.155 1207.65 367.878 1209.28 352.984H1141.75V336.954H1218.01C1222.85 336.954 1226.76 340.866 1226.76 345.703L1226.78 345.676Z" fill="white"/>
<path d="M1427.15 247.763H1328.79V263.794H1427.15V247.763Z" fill="white"/>
<path d="M1345.79 401.789V340.086H1421.09V324.056H1337.48C1332.69 324.056 1328.8 327.941 1328.8 332.738V408.912C1328.8 413.828 1332.79 417.819 1337.71 417.819H1428.38V401.789H1345.79Z" fill="white"/>
<path d="M1216.41 511.543C1219.71 514.794 1221.38 519.089 1221.38 524.428C1221.38 530.494 1219.3 535.278 1215.14 538.767C1210.98 542.256 1205.93 544 1199.99 544C1195.26 544 1191.04 542.903 1187.33 540.723C1183.63 538.542 1181.02 535.41 1179.5 531.34L1184.78 528.247C1185.81 531.406 1187.66 533.785 1190.33 535.397C1193 537.009 1196.21 537.815 1199.98 537.815C1204.35 537.815 1207.94 536.652 1210.76 534.313C1213.58 531.974 1214.98 528.683 1214.98 524.441C1214.98 520.199 1213.57 516.895 1210.76 514.556C1207.93 512.217 1204.34 511.054 1199.98 511.054V510.961L1199.88 511.054H1198.15L1195.42 506.865L1211.26 485.191H1181.31V479.178H1218.63V485.191L1203.79 505.675C1208.89 506.336 1213.1 508.305 1216.4 511.543H1216.41Z" fill="white"/>
<path d="M1246.43 535.027C1242.21 529.053 1240.1 521.045 1240.1 511.041C1240.1 501.037 1242.21 493.028 1246.43 487.055C1250.64 481.081 1256.58 478.082 1264.22 478.082C1271.87 478.082 1277.81 481.068 1282.02 487.055C1286.24 493.028 1288.35 501.037 1288.35 511.041C1288.35 521.045 1286.24 529.053 1282.02 535.027C1277.81 541 1271.87 544 1264.22 544C1256.58 544 1250.64 541.013 1246.43 535.027ZM1277.29 530.798C1280.42 526.12 1281.98 519.538 1281.98 511.041C1281.98 502.543 1280.42 495.962 1277.29 491.284C1274.16 486.606 1269.81 484.266 1264.22 484.266C1258.64 484.266 1254.29 486.606 1251.16 491.284C1248.03 495.962 1246.47 502.543 1246.47 511.041C1246.47 519.538 1248.03 526.12 1251.16 530.798C1254.29 535.476 1258.64 537.815 1264.22 537.815C1269.81 537.815 1274.16 535.476 1277.29 530.798Z" fill="white"/>
<path d="M1344.49 527.243H1314.27L1308.35 542.903H1301.61L1324.92 482.231C1325.63 480.394 1327.4 479.178 1329.37 479.178C1331.34 479.178 1333.11 480.394 1333.82 482.231L1357.13 542.903H1350.39L1344.47 527.243H1344.49ZM1342.2 521.23L1329.37 487.081L1316.54 521.23H1342.21H1342.2Z" fill="white"/>
<path d="M1154.14 479.231H7.01318V484.848H1154.14V479.231Z" fill="white"/>
<path d="M1525 479.231H1362.26V484.848H1525V479.231Z" fill="white"/>
</svg>
